<svg xmlns="http://www.w3.org/2000/svg"
 xmlns:xlink="http://www.w3.org/1999/xlink"
 width="89px" height="89px"  viewBox="0 0 89 89">
<path fill-rule="evenodd"  fill="#60d4d4"
 d="M43.39688,1.5096893 C43.39688,1.5096893 22.39769,1.5096893 22.39769,1.5096893 C10.818176,1.5096893 1.3985901,10.929367 1.3985901,22.508957 C1.3985901,34.08815 10.818176,43.507828 22.39769,43.507828 C22.39769,43.507828 43.39688,43.507828 43.39688,43.507828 C43.39688,43.507828 43.39688,23.588913 43.39688,23.588913 C43.39688,23.588913 35.83719,23.588913 35.83719,23.588913 C35.83719,23.588913 35.83719,21.429 35.83719,21.429 C35.83719,21.429 43.39688,21.429 43.39688,21.429 C43.39688,21.429 43.39688,1.5096893 43.39688,1.5096893 ZM45.978317,1.5096893 C45.978317,1.5096893 45.978317,22.508957 45.978317,22.508957 C45.978317,34.08815 55.397995,43.507828 66.97751,43.507828 C78.55702,43.507828 87.97661,34.08815 87.97661,22.508957 C87.97661,22.508957 87.97661,1.5096893 87.97661,1.5096893 C87.97661,1.5096893 68.05742,1.5096893 68.05742,1.5096893 C68.05742,1.5096893 68.05742,9.069374 68.05742,9.069374 C68.05742,9.069374 65.89758,9.069374 65.89758,9.069374 C65.89758,9.069374 65.89758,1.5096893 65.89758,1.5096893 C65.89758,1.5096893 45.978317,1.5096893 45.978317,1.5096893 ZM3.9786377,45.50949 C3.9786377,45.50949 3.9786377,87.50804 3.9786377,87.50804 C3.9786377,87.50804 23.95787,87.50804 23.95787,87.50804 C27.497665,87.50804 30.677536,87.02792 32.65747,86.247894 C38.95723,83.66792 43.397034,77.42847 43.397034,70.22876 C43.397034,64.10901 40.217163,58.768875 35.35739,55.64914 C35.35739,55.64914 35.35739,55.64914 35.35739,55.64914 C35.35739,51.449463 32.777496,47.789536 29.057617,46.289536 C27.857666,45.809418 26.05774,45.50949 23.95787,45.50949 C23.95787,45.50949 3.9786377,45.50949 3.9786377,45.50949 ZM85.81691,69.20886 C85.81691,69.20886 85.81691,63.809082 85.81691,63.809082 C85.81691,63.809082 78.19725,63.809082 78.19725,63.809082 C78.19725,63.809082 78.19725,61.70883 78.19725,61.70883 C78.19725,61.70883 85.81691,61.70883 85.81691,61.70883 C85.81691,61.70883 85.81691,45.50949 85.81691,45.50949 C85.81691,45.50949 45.318527,45.50949 45.318527,45.50949 C45.318527,45.50949 45.318527,87.50804 45.318527,87.50804 C45.318527,87.50804 85.81691,87.50804 85.81691,87.50804 C85.81691,87.50804 85.81691,71.308716 85.81691,71.308716 C85.81691,71.308716 78.19725,71.308716 78.19725,71.308716 C78.19725,71.308716 78.19725,69.20886 78.19725,69.20886 C78.19725,69.20886 85.81691,69.20886 85.81691,69.20886 Z"/>
</svg>